# xmcd CD database file
#
# Track frame offsets:
#	150
#	20172
#	35945
#	59762
#	73827
#
# Disc length: 1186 seconds
#
# Revision: 0
# Processed by: cddbd v1.5.2PL0 Copyright (c) Steve Scherf et al.
# Submitted via: CDex 1.51
#
DISCID=5104a005
DTITLE=Hard Working Band - Hot´n´Nasty
DYEAR=1995
DGENRE=Blues
TTITLE0=Misfit
TTITLE1=Lou Ann
TTITLE2=Stay On
TTITLE3=Hard Working Band
TTITLE4=Slave Rock
EXTD=YEAR: 1995
EXTT0=
EXTT1=
EXTT2=
EXTT3=
EXTT4=
PLAYORDER=
